<svg width="20" height="20" fill="none" xmlns="http://www.w3.org/2000/svg"><path d="M17.863 2.152a1.611 1.611 0 0 0-1.61-.42L2.84 5.633a1.6 1.6 0 0 0-1.153 1.268c-.118.625.295 1.42.835 1.752l4.195 2.578c.43.264.985.198 1.34-.161l4.804-4.833a.612.612 0 0 1 .883 0 .636.636 0 0 1 0 .89l-4.81 4.833a1.103 1.103 0 0 0-.162 1.349l2.563 4.236c.3.503.817.788 1.384.788.067 0 .142 0 .208-.008a1.625 1.625 0 0 0 1.36-1.158l3.976-13.396a1.637 1.637 0 0 0-.4-1.62Z" fill="url(#a)"/><defs><linearGradient id="a" x1="18.333" y1="10" x2="1.042" y2="11.606" gradientUnits="userSpaceOnUse"><stop stop-color="#CE9FFC"/><stop offset="1" stop-color="#7367F0" stop-opacity=".8"/></linearGradient></defs></svg>