<svg width="264" height="196" fill="none" xmlns="http://www.w3.org/2000/svg"><path d="M0 10C0 4.477 4.162 0 9.296 0h245.408C259.838 0 264 4.477 264 10v115c0 5.523-5.218 10.058-7.499 15.006a9.52 9.52 0 0 0-.867 3.994 9.52 9.52 0 0 0 .867 3.994C258.782 152.942 264 157.477 264 163v23c0 5.523-4.162 10-9.296 10H9.296C4.162 196 0 191.523 0 186v-23c0-5.523 5.218-10.058 7.5-15.006A9.52 9.52 0 0 0 8.365 144a9.52 9.52 0 0 0-.867-3.994C5.218 135.058 0 130.523 0 125V10Z" fill="#94A6CD" fill-opacity=".26"/></svg>