<svg width="145" height="27" fill="none" xmlns="http://www.w3.org/2000/svg"><mask id="a" maskUnits="userSpaceOnUse" x="-1" y="-1" width="147" height="29" fill="#000"><path fill="#fff" d="M-1-1h147v29H-1z"/><path d="M9.836 26.468c5.148 0 8.712-2.808 8.712-7.236 0-4.86-4.14-6.156-8.532-7.596-3.528-1.116-5.292-1.98-5.292-4.32 0-2.304 1.872-3.744 4.572-3.744 3.06 0 4.824 1.728 5.724 3.888l2.808-1.62C16.424 2.672 13.436.332 9.296.332c-4.212 0-7.92 2.592-7.92 7.128 0 4.68 3.888 5.94 7.92 7.236 3.708 1.152 5.94 2.016 5.94 4.608 0 2.268-1.764 3.888-5.328 3.888-3.672 0-5.832-1.8-6.732-4.572l-2.88 1.656c1.332 3.78 4.752 6.192 9.54 6.192ZM40.726.8h-18.18v3.168h7.416V26h3.312V3.968h7.452V.8ZM61.843 26h3.564L56.01.8h-3.78L42.835 26h3.564l2.052-5.652h11.34L61.843 26Zm-12.24-8.784 4.5-12.42 4.536 12.42h-9.036ZM86.32 26h3.708l-5.94-10.08c3.024-1.08 5.22-3.996 5.22-7.308C89.308 4.292 85.78.8 81.46.8H71.38V26h3.348v-9.648h5.94L86.32 26ZM74.728 3.932h6.732c2.484 0 4.5 2.088 4.5 4.68 0 2.592-2.016 4.716-4.5 4.716h-6.732V3.932ZM106.216.8h-9.828V26h9.828c6.948 0 11.952-5.616 11.952-12.6S113.164.8 106.216.8Zm0 22.032h-6.48V3.968h6.48c5.184 0 8.748 4.104 8.748 9.432s-3.564 9.432-8.748 9.432ZM140.909 26h3.564L135.077.8h-3.78L121.901 26h3.564l2.052-5.652h11.34L140.909 26Zm-12.24-8.784 4.5-12.42 4.536 12.42h-9.036Z"/></mask><path d="m10.016 11.636.312-.95-.01-.003-.302.953ZM15.02 7.46l-.923.385.437 1.05.986-.569-.5-.866Zm2.808-1.62.5.866.779-.45-.365-.821-.914.405Zm-8.532 8.856-.306.952.01.003.296-.955Zm-6.12 3.924.951-.309-.38-1.172-1.07.614.499.867Zm-2.88 1.656-.498-.867-.722.415.277.784.943-.332Zm9.54 7.192c2.748 0 5.167-.75 6.92-2.183 1.772-1.45 2.792-3.546 2.792-6.053h-2c0 1.921-.762 3.444-2.059 4.505-1.316 1.076-3.253 1.731-5.653 1.731v2Zm9.712-8.236c0-2.793-1.225-4.622-3.045-5.9-1.732-1.214-4.027-1.942-6.175-2.646l-.624 1.9c2.244.736 4.214 1.376 5.65 2.384 1.35.946 2.194 2.194 2.194 4.262h2Zm-9.23-8.55c-1.782-.563-2.95-1.017-3.679-1.553-.345-.253-.56-.504-.696-.766-.134-.262-.219-.592-.219-1.047h-2c0 .715.136 1.37.442 1.964.306.592.752 1.066 1.289 1.46 1.034.76 2.513 1.297 4.26 1.85l.603-1.907ZM5.724 7.317c0-.855.335-1.502.9-1.957.587-.472 1.49-.787 2.672-.787v-2c-1.518 0-2.9.405-3.925 1.229-1.046.841-1.647 2.066-1.647 3.515h2Zm3.572-2.744c1.33 0 2.321.371 3.072.934.761.57 1.33 1.382 1.729 2.339l1.846-.77c-.501-1.203-1.264-2.336-2.375-3.169-1.121-.841-2.541-1.334-4.272-1.334v2Zm6.224 3.754 2.808-1.62-1-1.732-2.808 1.62 1 1.732Zm3.222-2.891c-1.55-3.498-4.877-6.103-9.446-6.103v2c3.711 0 6.36 2.075 7.618 4.913l1.828-.81ZM9.296-.668c-2.303 0-4.52.708-6.18 2.096C1.435 2.83.375 4.893.375 7.46h2c0-1.97.794-3.471 2.022-4.498 1.246-1.042 2.989-1.63 4.898-1.63v-2ZM.376 7.46c0 2.69 1.15 4.466 2.864 5.699 1.63 1.172 3.775 1.854 5.75 2.489l.612-1.904c-2.057-.661-3.871-1.257-5.194-2.209-1.238-.89-2.032-2.085-2.032-4.075h-2Zm8.623 8.191c1.884.585 3.222 1.051 4.101 1.64.42.28.691.563.863.86.168.293.273.656.273 1.153h2c0-.799-.174-1.516-.54-2.15-.363-.63-.881-1.122-1.483-1.525-1.164-.78-2.796-1.321-4.62-1.888l-.594 1.91Zm5.237 3.653c0 .85-.317 1.52-.94 2.005-.654.507-1.742.883-3.388.883v2c1.918 0 3.495-.434 4.614-1.304 1.149-.892 1.714-2.166 1.714-3.584h-2Zm-4.328 2.888c-1.67 0-2.913-.407-3.823-1.06-.91-.65-1.562-1.601-1.958-2.82l-1.902.617c.504 1.552 1.381 2.888 2.695 3.83 1.313.94 2.986 1.433 4.988 1.433v-2Zm-7.23-4.439-2.88 1.656.996 1.734 2.88-1.656-.996-1.734Zm-3.325 2.855c1.489 4.226 5.32 6.86 10.483 6.86v-2c-4.414 0-7.422-2.19-8.597-5.524l-1.886.664ZM40.726.8h1v-1h-1v1Zm-18.18 0v-1h-1v1h1Zm0 3.168h-1v1h1v-1Zm7.416 0h1v-1h-1v1Zm0 22.032h-1v1h1v-1Zm3.312 0v1h1v-1h-1Zm0-22.032v-1h-1v1h1Zm7.452 0v1h1v-1h-1Zm0-4.168h-18.18v2h18.18v-2Zm-19.18 1v3.168h2V.8h-2Zm1 4.168h7.416v-2h-7.416v2Zm6.416-1V26h2V3.968h-2Zm1 23.032h3.312v-2h-3.312v2Zm4.312-1V3.968h-2V26h2Zm-1-21.032h7.452v-2h-7.452v2Zm8.452-1V.8h-2v3.168h2ZM61.843 26l-.94.341.24.659h.7v-1Zm3.564 0v1h1.44l-.503-1.35-.937.35ZM56.01.8l.937-.35-.243-.65h-.694v1Zm-3.78 0v-1h-.695l-.242.65.937.35ZM42.835 26l-.937-.35-.503 1.35h1.44v-1Zm3.564 0v1h.7l.24-.659-.94-.341Zm2.052-5.652v-1h-.7l-.24.659.94.341Zm11.34 0 .94-.341-.24-.659h-.7v1Zm-10.188-3.132-.94-.34-.486 1.34h1.426v-1Zm4.5-12.42.94-.343-.944-2.582-.936 2.584.94.341Zm4.536 12.42v1h1.43l-.49-1.343-.94.343ZM61.843 27h3.564v-2h-3.564v2Zm4.5-1.35L56.949.45l-1.874.7 9.396 25.2 1.874-.7ZM56.012-.2h-3.78v2h3.78v-2Zm-4.717.65-9.396 25.2 1.874.7 9.396-25.2-1.874-.7ZM42.834 27H46.4v-2h-3.564v2Zm4.505-.659 2.052-5.652-1.88-.682-2.052 5.652 1.88.682Zm1.112-4.993h11.34v-2H48.45v2Zm10.4-.659 2.052 5.652 1.88-.682-2.052-5.652-1.88.682Zm-8.308-3.132 4.5-12.42-1.88-.682-4.5 12.42 1.88.682Zm2.62-12.418L57.7 17.56l1.878-.686-4.536-12.42-1.878.686Zm5.476 11.077h-9.036v2h9.036v-2ZM86.319 26l-.862.506.29.494h.573v-1Zm3.709 0v1h1.75l-.889-1.508-.861.508Zm-5.94-10.08-.337-.942-1.14.407.615 1.043.862-.508ZM71.38.8v-1h-1v1h1Zm0 25.2h-1v1h1v-1Zm3.348 0v1h1v-1h-1Zm0-9.648v-1h-1v1h1Zm5.94 0 .862-.505-.29-.495h-.572v1Zm-5.94-12.42v-1h-1v1h1Zm0 9.396h-1v1h1v-1ZM86.32 27h3.708v-2H86.32v2Zm4.57-1.508-5.94-10.08-1.724 1.016 5.94 10.08 1.723-1.016Zm-6.466-8.63c3.4-1.215 5.884-4.493 5.884-8.25h-2c0 2.867-1.91 5.42-4.557 6.366l.673 1.884Zm5.884-8.25c0-4.878-3.982-8.812-8.848-8.812v2c3.773 0 6.848 3.05 6.848 6.812h2ZM81.46-.2H71.38v2h10.08v-2ZM70.38.8V26h2V.8h-2Zm1 26.2h3.348v-2H71.38v2Zm4.348-1v-9.648h-2V26h2Zm-1-8.648h5.94v-2h-5.94v2Zm5.077-.494 5.652 9.648 1.726-1.012-5.653-9.647-1.725 1.01ZM74.728 4.932h6.732v-2h-6.732v2Zm6.732 0c1.896 0 3.5 1.604 3.5 3.68h2c0-3.108-2.429-5.68-5.5-5.68v2Zm3.5 3.68c0 2.086-1.614 3.716-3.5 3.716v2c3.081 0 5.5-2.618 5.5-5.716h-2Zm-3.5 3.716h-6.732v2h6.732v-2Zm-5.732 1V3.932h-2v9.396h2ZM96.388.8v-1h-1v1h1Zm0 25.2h-1v1h1v-1Zm3.347-3.168h-1v1h1v-1Zm0-18.864v-1h-1v1h1Zm6.48-4.168h-9.828v2h9.828v-2ZM95.387.8V26h2V.8h-2Zm1 26.2h9.828v-2h-9.828v2Zm9.828 0c7.567 0 12.953-6.132 12.953-13.6h-2c0 6.5-4.623 11.6-10.953 11.6v2Zm12.953-13.6c0-7.468-5.386-13.6-12.953-13.6v2c6.33 0 10.953 5.1 10.953 11.6h2Zm-12.953 8.432h-6.48v2h6.48v-2Zm-5.479 1V3.968h-2v18.864h2Zm-1-17.864h6.479v-2h-6.48v2Zm6.479 0c4.545 0 7.749 3.565 7.749 8.432h2c0-5.789-3.925-10.432-9.749-10.432v2Zm7.749 8.432c0 4.867-3.204 8.432-7.749 8.432v2c5.824 0 9.749-4.643 9.749-10.432h-2ZM140.909 26l-.94.341.239.659h.701v-1Zm3.564 0v1h1.44l-.503-1.35-.937.35ZM135.077.8l.937-.35-.242-.65h-.695v1Zm-3.78 0v-1h-.694l-.243.65.937.35ZM121.901 26l-.937-.35-.503 1.35h1.44v-1Zm3.564 0v1h.701l.239-.659-.94-.341Zm2.052-5.652v-1h-.701l-.239.659.94.341Zm11.34 0 .94-.341-.239-.659h-.701v1Zm-10.188-3.132-.94-.34-.486 1.34h1.426v-1Zm4.5-12.42.94-.343-.943-2.582-.937 2.584.94.341Zm4.536 12.42v1h1.43l-.49-1.343-.94.343ZM140.909 27h3.564v-2h-3.564v2Zm4.501-1.35L136.014.45l-1.874.7 9.396 25.2 1.874-.7ZM135.077-.2h-3.78v2h3.78v-2Zm-4.717.65-9.396 25.2 1.874.7 9.396-25.2-1.874-.7ZM121.901 27h3.564v-2h-3.564v2Zm4.504-.659 2.052-5.652-1.88-.682-2.052 5.652 1.88.682Zm1.112-4.993h11.34v-2h-11.34v2Zm10.4-.659 2.052 5.652 1.88-.682-2.052-5.652-1.88.682Zm-8.308-3.132 4.5-12.42-1.88-.682-4.5 12.42 1.88.682Zm2.621-12.418 4.536 12.42 1.879-.686-4.536-12.42-1.879.686Zm5.475 11.077h-9.036v2h9.036v-2Z" fill="#fff" mask="url(#a)"/></svg>