<svg width="89" height="16" fill="none" xmlns="http://www.w3.org/2000/svg"><mask id="a" maskUnits="userSpaceOnUse" x="-2" y="-1" width="92" height="18" fill="#000"><path fill="#fff" d="M-2-1h92v18H-2z"/><path d="M5.16 15h2.1l5.02-14h-2.02L6.22 12.68 2.16 1h-2l5 14Zm16.842.26c3.06 0 5.24-1.92 5.24-4.96V1h-1.84v9.22c0 1.94-1.16 3.22-3.4 3.22s-3.4-1.28-3.4-3.22V1h-1.86v9.3c0 3.04 2.2 4.96 5.26 4.96Zm12.944-2.02V1h-1.86v14h7.9v-1.76h-6.04Zm16.529 2.02c2.6 0 4.88-1.36 6.04-3.42l-1.62-.92c-.8 1.52-2.5 2.52-4.42 2.52-3.28 0-5.48-2.38-5.48-5.44 0-3.08 2.2-5.46 5.48-5.46 1.92 0 3.62 1 4.42 2.54l1.62-.94c-1.18-2.06-3.46-3.4-6.04-3.4-4.28 0-7.32 3.22-7.32 7.26 0 4.02 3.04 7.26 7.32 7.26Zm20.23-.26h1.98l-5.22-14h-2.1l-5.22 14h1.98l1.14-3.14h6.3l1.14 3.14Zm-6.8-4.88 2.5-6.9 2.52 6.9h-5.02ZM87.034 1v10.44L79.836 1h-1.5v14h1.86V4.54l7.2 10.46h1.5V1h-1.86Z"/></mask><path d="m5.16 15-.942.336.237.664h.705v-1Zm2.1 0v1h.704l.237-.662L7.26 15Zm5.02-14 .941.338.48-1.338H12.28v1Zm-2.02 0V0h-.712l-.233.673.945.327ZM6.22 12.68l-.945.328.947 2.724.943-2.725-.945-.327ZM2.16 1l.945-.328L2.87 0h-.71v1Zm-2 0V0h-1.419l.477 1.336L.16 1Zm5 15h2.1v-2h-2.1v2Zm3.041-.662 5.02-14L11.34.662l-5.02 14 1.882.675ZM12.28 0h-2.02v2h2.02V0ZM9.315.673l-4.04 11.68 1.89.654 4.04-11.68-1.89-.654Zm-2.15 11.679L3.105.672l-1.89.656 4.06 11.68 1.89-.656ZM2.16 0h-2v2h2V0ZM-.782 1.336l5 14 1.884-.672-5-14-1.884.672ZM27.242 1h1V0h-1v1Zm-1.84 0V0h-1v1h1Zm-6.8 0h1V0h-1v1Zm-1.86 0V0h-1v1h1Zm5.26 15.26c1.738 0 3.305-.548 4.447-1.607 1.15-1.067 1.793-2.582 1.793-4.353h-2c0 1.268-.448 2.233-1.152 2.887-.713.66-1.766 1.073-3.088 1.073v2Zm6.24-5.96V1h-2v9.3h2Zm-1-10.3h-1.84v2h1.84V0Zm-2.84 1v9.22h2V1h-2Zm0 9.22c0 .771-.227 1.294-.563 1.626-.336.331-.906.594-1.837.594v2c1.309 0 2.438-.377 3.242-1.17.805-.794 1.158-1.881 1.158-3.05h-2Zm-2.4 2.22c-.931 0-1.502-.263-1.838-.594-.335-.332-.562-.855-.562-1.626h-2c0 1.169.353 2.255 1.157 3.05.804.793 1.934 1.17 3.243 1.17v-2Zm-2.4-2.22V1h-2v9.22h2Zm-1-10.22h-1.86v2h1.86V0Zm-2.86 1v9.3h2V1h-2Zm0 9.3c0 1.774.649 3.29 1.804 4.355 1.147 1.058 2.718 1.605 4.456 1.605v-2c-1.322 0-2.381-.413-3.1-1.075-.71-.655-1.16-1.62-1.16-2.885h-2Zm19.204 2.94h-1v1h1v-1Zm0-12.24h1V0h-1v1Zm-1.86 0V0h-1v1h1Zm0 14h-1v1h1v-1Zm7.9 0v1h1v-1h-1Zm0-1.76h1v-1h-1v1Zm-5.04 0V1h-2v12.24h2Zm-1-13.24h-1.86v2h1.86V0Zm-2.86 1v14h2V1h-2Zm1 15h7.9v-2h-7.9v2Zm8.9-1v-1.76h-2V15h2Zm-1-2.76h-6.04v2h6.04v-2Zm16.529-.4.87.49.49-.867-.867-.493-.494.87Zm-1.62-.92.493-.87-.898-.51-.48.914.885.466Zm0-5.84-.888.461.483.93.906-.526-.502-.865Zm1.62-.94.501.865.86-.5-.494-.862-.867.497Zm-6.04 12.12c2.949 0 5.568-1.545 6.91-3.93l-1.742-.98c-.977 1.735-2.918 2.91-5.169 2.91v2Zm6.533-5.29-1.62-.92-.987 1.74 1.62.92.987-1.74Zm-2.998-.516c-.612 1.163-1.953 1.986-3.535 1.986v2c2.257 0 4.316-1.177 5.304-3.054l-1.77-.932Zm-3.535 1.986c-2.711 0-4.48-1.915-4.48-4.44h-2c0 3.595 2.63 6.44 6.48 6.44v-2ZM46.995 8c0-2.547 1.771-4.46 4.48-4.46v-2c-3.852 0-6.48 2.847-6.48 6.46h2Zm4.48-4.46c1.58 0 2.92.821 3.532 2.001l1.775-.922c-.987-1.9-3.048-3.079-5.307-3.079v2Zm4.921 2.405 1.62-.94-1.003-1.73-1.62.94 1.003 1.73Zm1.986-2.302C57.018 1.262 54.402-.26 51.475-.26v2c2.233 0 4.176 1.158 5.172 2.897l1.735-.994ZM51.475-.26c-4.844 0-8.32 3.679-8.32 8.26h2c0-3.499 2.603-6.26 6.32-6.26v-2ZM43.154 8c0 4.56 3.475 8.26 8.32 8.26v-2c-3.716 0-6.32-2.78-6.32-6.26h-2Zm28.55 7-.94.341.239.659h.7v-1Zm1.98 0v1h1.44l-.504-1.35-.937.35Zm-5.22-14L69.4.65 69.16 0h-.695v1Zm-2.1 0V0h-.695l-.243.65.937.35Zm-5.22 14-.938-.35-.503 1.35h1.44v-1Zm1.98 0v1h.7l.24-.659-.94-.341Zm1.14-3.14v-1h-.701l-.24.659.94.341Zm6.3 0 .94-.341-.24-.659h-.7v1Zm-5.66-1.74-.94-.34-.487 1.34h1.426v-1Zm2.5-6.9.939-.343L67.4.295l-.937 2.584.94.341Zm2.52 6.9v1h1.43l-.491-1.343-.94.343Zm1.78 5.88h1.98v-2h-1.98v2Zm2.916-1.35L69.4.65l-1.874.7 5.22 14 1.874-.7ZM68.464 0h-2.1v2h2.1V0Zm-3.037.65-5.22 14 1.874.7 5.22-14-1.874-.7ZM61.144 16h1.98v-2h-1.98v2Zm2.92-.659 1.14-3.14-1.88-.682-1.14 3.14 1.88.682Zm.2-2.481h6.3v-2h-6.3v2Zm5.36-.659 1.14 3.14 1.88-.682-1.14-3.14-1.88.682Zm-3.78-1.74 2.5-6.9-1.88-.682-2.5 6.9 1.88.682Zm.621-6.898 2.52 6.9 1.879-.686-2.52-6.9-1.879.686Zm3.46 5.557h-5.02v2h5.02v-2ZM87.034 1V0h-1v1h1Zm0 10.44-.822.568 1.823 2.643V11.44h-1ZM79.836 1l.824-.568L80.361 0h-.525v1Zm-1.5 0V0h-1v1h1Zm0 14h-1v1h1v-1Zm1.86 0v1h1v-1h-1Zm0-10.46.825-.567-1.824-2.65V4.54h1Zm7.2 10.46-.823.567.298.433h.526v-1Zm1.5 0v1h1v-1h-1Zm0-14h1V0h-1v1Zm-2.86 0v10.44h2V1h-2Zm1.824 9.872L80.66.432l-1.646 1.136 7.2 10.44 1.646-1.136ZM79.836 0h-1.5v2h1.5V0Zm-2.5 1v14h2V1h-2Zm1 15h1.86v-2h-1.86v2Zm2.86-1V4.54h-2V15h2Zm-1.824-9.893 7.2 10.46 1.648-1.134-7.2-10.46-1.648 1.134ZM87.396 16h1.5v-2h-1.5v2Zm2.5-1V1h-2v14h2Zm-1-15h-1.86v2h1.86V0Z" fill="#282E45" mask="url(#a)"/></svg>