<svg width="264" height="196" viewBox="0 0 264 196" fill="none" xmlns="http://www.w3.org/2000/svg">
<path d="M0 10C0 4.47715 4.16186 0 9.29577 0H254.704C259.838 0 264 4.47715 264 10V125C264 130.523 258.782 135.058 256.501 140.006C255.946 141.209 255.634 142.565 255.634 144C255.634 145.435 255.946 146.791 256.501 147.994C258.782 152.942 264 157.477 264 163V186C264 191.523 259.838 196 254.704 196H9.29577C4.16186 196 0 191.523 0 186V163C0 157.477 5.21777 152.942 7.49923 147.994C8.0542 146.791 8.3662 145.435 8.3662 144C8.3662 142.565 8.0542 141.209 7.49923 140.006C5.21777 135.058 0 130.523 0 125V10Z" fill="#94A6CD" fill-opacity="0.26"/>
</svg>
