<svg width="145" height="27" viewBox="0 0 145 27" fill="none" xmlns="http://www.w3.org/2000/svg">
<mask id="path-1-outside-1_87_601" maskUnits="userSpaceOnUse" x="-1" y="-1" width="147" height="29" fill="black">
<rect fill="white" x="-1" y="-1" width="147" height="29"/>
<path d="M9.836 26.468C14.984 26.468 18.548 23.66 18.548 19.232C18.548 14.372 14.408 13.076 10.016 11.636C6.488 10.52 4.724 9.656 4.724 7.316C4.724 5.012 6.596 3.572 9.296 3.572C12.356 3.572 14.12 5.3 15.02 7.46L17.828 5.84C16.424 2.672 13.436 0.331998 9.296 0.331998C5.084 0.331998 1.376 2.924 1.376 7.46C1.376 12.14 5.264 13.4 9.296 14.696C13.004 15.848 15.236 16.712 15.236 19.304C15.236 21.572 13.472 23.192 9.908 23.192C6.236 23.192 4.076 21.392 3.176 18.62L0.296 20.276C1.628 24.056 5.048 26.468 9.836 26.468ZM40.7264 0.799998H22.5464V3.968H29.9624V26H33.2744V3.968H40.7264V0.799998ZM61.8429 26H65.4069L56.0109 0.799998H52.2309L42.8349 26H46.3989L48.4509 20.348H59.7909L61.8429 26ZM49.6029 17.216L54.1029 4.796L58.6389 17.216H49.6029ZM86.3197 26H90.0277L84.0877 15.92C87.1117 14.84 89.3077 11.924 89.3077 8.612C89.3077 4.292 85.7797 0.799998 81.4597 0.799998H71.3797V26H74.7277V16.352H80.6677L86.3197 26ZM74.7277 3.932H81.4597C83.9437 3.932 85.9597 6.02 85.9597 8.612C85.9597 11.204 83.9437 13.328 81.4597 13.328H74.7277V3.932ZM106.216 0.799998H96.3875V26H106.216C113.164 26 118.168 20.384 118.168 13.4C118.168 6.416 113.164 0.799998 106.216 0.799998ZM106.216 22.832H99.7355V3.968H106.216C111.4 3.968 114.964 8.072 114.964 13.4C114.964 18.728 111.4 22.832 106.216 22.832ZM140.909 26H144.473L135.077 0.799998H131.297L121.901 26H125.465L127.517 20.348H138.857L140.909 26ZM128.669 17.216L133.169 4.796L137.705 17.216H128.669Z"/>
</mask>
<path d="M10.016 11.636L10.3276 10.6857L10.3176 10.6826L10.016 11.636ZM15.02 7.46L14.0969 7.84461L14.5344 8.89462L15.5197 8.32618L15.02 7.46ZM17.828 5.84L18.3277 6.70619L19.1066 6.25686L18.7422 5.43483L17.828 5.84ZM9.296 14.696L8.98998 15.6481L8.99931 15.651L9.296 14.696ZM3.176 18.62L4.12712 18.3112L3.74638 17.1385L2.67753 17.7531L3.176 18.62ZM0.296 20.276L-0.202471 19.4091L-0.92363 19.8238L-0.647156 20.6084L0.296 20.276ZM9.836 27.468C12.5835 27.468 15.0027 26.7187 16.7557 25.2845C18.5279 23.8345 19.548 21.7387 19.548 19.232H17.548C17.548 21.1533 16.7861 22.6755 15.4893 23.7365C14.1733 24.8133 12.2365 25.468 9.836 25.468V27.468ZM19.548 19.232C19.548 16.4395 18.3228 14.6096 16.5034 13.3329C14.7715 12.1176 12.4756 11.39 10.3276 10.6858L9.70445 12.5862C11.9484 13.322 13.9185 13.9624 15.3546 14.9701C16.7032 15.9164 17.548 17.1645 17.548 19.232H19.548ZM10.3176 10.6826C8.53625 10.1191 7.36893 9.66534 6.63908 9.12912C6.29448 8.87595 6.07889 8.62534 5.94349 8.36284C5.80866 8.10143 5.724 7.77136 5.724 7.316H3.724C3.724 8.03063 3.85984 8.68607 4.16601 9.27965C4.47161 9.87216 4.91752 10.3461 5.45492 10.7409C6.48907 11.5007 7.96776 12.0369 9.7144 12.5894L10.3176 10.6826ZM5.724 7.316C5.724 6.46116 6.05915 5.81382 6.62432 5.35917C7.21067 4.88746 8.11435 4.572 9.296 4.572V2.572C7.77765 2.572 6.39533 2.97653 5.37068 3.80083C4.32485 4.64218 3.724 5.86684 3.724 7.316H5.724ZM9.296 4.572C10.6255 4.572 11.6174 4.94303 12.368 5.506C13.129 6.07676 13.6983 6.88791 14.0969 7.84461L15.9431 7.07538C15.4417 5.87208 14.679 4.73924 13.568 3.906C12.4466 3.06496 11.0265 2.572 9.296 2.572V4.572ZM15.5197 8.32618L18.3277 6.70619L17.3283 4.97381L14.5203 6.59381L15.5197 8.32618ZM18.7422 5.43483C17.1919 1.93654 13.8648 -0.668002 9.296 -0.668002V1.332C13.0072 1.332 15.6561 3.40746 16.9138 6.24517L18.7422 5.43483ZM9.296 -0.668002C6.99349 -0.668002 4.77565 0.0397129 3.11515 1.42775C1.43612 2.83128 0.376 4.89346 0.376 7.46H2.376C2.376 5.49054 3.16988 3.98872 4.39785 2.96224C5.64435 1.92028 7.38651 1.332 9.296 1.332V-0.668002ZM0.376 7.46C0.376 10.1497 1.52639 11.9258 3.23996 13.1587C4.86917 14.331 7.01508 15.0132 8.98999 15.648L9.60201 13.744C7.54492 13.0828 5.73083 12.487 4.40804 11.5353C3.16961 10.6442 2.376 9.45026 2.376 7.46H0.376ZM8.99931 15.651C10.8835 16.2364 12.2213 16.7024 13.1001 17.2909C13.5196 17.5718 13.7914 17.8543 13.963 18.1519C14.1311 18.4436 14.236 18.8068 14.236 19.304H16.236C16.236 18.5052 16.0619 17.7884 15.6957 17.1531C15.3329 16.5237 14.8149 16.0322 14.2129 15.6291C13.0487 14.8496 11.4165 14.3076 9.59269 13.741L8.99931 15.651ZM14.236 19.304C14.236 20.1537 13.919 20.8242 13.2951 21.3087C12.6415 21.8164 11.5536 22.192 9.908 22.192V24.192C11.8264 24.192 13.4025 23.7576 14.5219 22.8883C15.671 21.9958 16.236 20.7223 16.236 19.304H14.236ZM9.908 22.192C8.23813 22.192 6.99487 21.7847 6.08498 21.1327C5.17576 20.4811 4.52303 19.5306 4.12712 18.3112L2.22488 18.9288C2.72897 20.4814 3.60624 21.8169 4.92002 22.7583C6.23313 23.6993 7.90587 24.192 9.908 24.192V22.192ZM2.67753 17.7531L-0.202471 19.4091L0.794471 21.1429L3.67447 19.4869L2.67753 17.7531ZM-0.647156 20.6084C0.841716 24.8335 4.67374 27.468 9.836 27.468V25.468C5.42226 25.468 2.41428 23.2785 1.23916 19.9436L-0.647156 20.6084ZM40.7264 0.799998H41.7264V-0.200002H40.7264V0.799998ZM22.5464 0.799998V-0.200002H21.5464V0.799998H22.5464ZM22.5464 3.968H21.5464V4.968H22.5464V3.968ZM29.9624 3.968H30.9624V2.968H29.9624V3.968ZM29.9624 26H28.9624V27H29.9624V26ZM33.2744 26V27H34.2744V26H33.2744ZM33.2744 3.968V2.968H32.2744V3.968H33.2744ZM40.7264 3.968V4.968H41.7264V3.968H40.7264ZM40.7264 -0.200002H22.5464V1.8H40.7264V-0.200002ZM21.5464 0.799998V3.968H23.5464V0.799998H21.5464ZM22.5464 4.968H29.9624V2.968H22.5464V4.968ZM28.9624 3.968V26H30.9624V3.968H28.9624ZM29.9624 27H33.2744V25H29.9624V27ZM34.2744 26V3.968H32.2744V26H34.2744ZM33.2744 4.968H40.7264V2.968H33.2744V4.968ZM41.7264 3.968V0.799998H39.7264V3.968H41.7264ZM61.8429 26L60.9029 26.3413L61.1421 27H61.8429V26ZM65.4069 26V27H66.847L66.3439 25.6506L65.4069 26ZM56.0109 0.799998L56.9479 0.450636L56.7053 -0.200002H56.0109V0.799998ZM52.2309 0.799998V-0.200002H51.5365L51.2939 0.450636L52.2309 0.799998ZM42.8349 26L41.8979 25.6506L41.3948 27H42.8349V26ZM46.3989 26V27H47.0997L47.3388 26.3413L46.3989 26ZM48.4509 20.348V19.348H47.7501L47.5109 20.0067L48.4509 20.348ZM59.7909 20.348L60.7308 20.0067L60.4917 19.348H59.7909V20.348ZM49.6029 17.216L48.6627 16.8754L48.1769 18.216H49.6029V17.216ZM54.1029 4.796L55.0422 4.45294L54.0991 1.87076L53.1627 4.45535L54.1029 4.796ZM58.6389 17.216V18.216H60.0687L59.5782 16.8729L58.6389 17.216ZM61.8429 27H65.4069V25H61.8429V27ZM66.3439 25.6506L56.9479 0.450636L55.0739 1.14936L64.4699 26.3494L66.3439 25.6506ZM56.0109 -0.200002H52.2309V1.8H56.0109V-0.200002ZM51.2939 0.450636L41.8979 25.6506L43.7719 26.3494L53.1679 1.14936L51.2939 0.450636ZM42.8349 27H46.3989V25H42.8349V27ZM47.3388 26.3413L49.3908 20.6893L47.5109 20.0067L45.4589 25.6587L47.3388 26.3413ZM48.4509 21.348H59.7909V19.348H48.4509V21.348ZM58.8509 20.6893L60.9029 26.3413L62.7828 25.6587L60.7308 20.0067L58.8509 20.6893ZM50.5431 17.5566L55.0431 5.13665L53.1627 4.45535L48.6627 16.8754L50.5431 17.5566ZM53.1636 5.13905L57.6996 17.5591L59.5782 16.8729L55.0422 4.45294L53.1636 5.13905ZM58.6389 16.216H49.6029V18.216H58.6389V16.216ZM86.3197 26L85.4568 26.5055L85.7466 27H86.3197V26ZM90.0277 26V27H91.7777L90.8892 25.4923L90.0277 26ZM84.0877 15.92L83.7514 14.9783L82.6118 15.3852L83.2262 16.4277L84.0877 15.92ZM71.3797 0.799998V-0.200002H70.3797V0.799998H71.3797ZM71.3797 26H70.3797V27H71.3797V26ZM74.7277 26V27H75.7277V26H74.7277ZM74.7277 16.352V15.352H73.7277V16.352H74.7277ZM80.6677 16.352L81.5305 15.8465L81.2408 15.352H80.6677V16.352ZM74.7277 3.932V2.932H73.7277V3.932H74.7277ZM74.7277 13.328H73.7277V14.328H74.7277V13.328ZM86.3197 27H90.0277V25H86.3197V27ZM90.8892 25.4923L84.9492 15.4123L83.2262 16.4277L89.1662 26.5077L90.8892 25.4923ZM84.424 16.8617C87.8248 15.6472 90.3077 12.3687 90.3077 8.612H88.3077C88.3077 11.4793 86.3985 14.0328 83.7514 14.9783L84.424 16.8617ZM90.3077 8.612C90.3077 3.73374 86.326 -0.200002 81.4597 -0.200002V1.8C85.2334 1.8 88.3077 4.85026 88.3077 8.612H90.3077ZM81.4597 -0.200002H71.3797V1.8H81.4597V-0.200002ZM70.3797 0.799998V26H72.3797V0.799998H70.3797ZM71.3797 27H74.7277V25H71.3797V27ZM75.7277 26V16.352H73.7277V26H75.7277ZM74.7277 17.352H80.6677V15.352H74.7277V17.352ZM79.8048 16.8575L85.4568 26.5055L87.1825 25.4945L81.5305 15.8465L79.8048 16.8575ZM74.7277 4.932H81.4597V2.932H74.7277V4.932ZM81.4597 4.932C83.356 4.932 84.9597 6.53618 84.9597 8.612H86.9597C86.9597 5.50382 84.5314 2.932 81.4597 2.932V4.932ZM84.9597 8.612C84.9597 10.698 83.3462 12.328 81.4597 12.328V14.328C84.5411 14.328 86.9597 11.71 86.9597 8.612H84.9597ZM81.4597 12.328H74.7277V14.328H81.4597V12.328ZM75.7277 13.328V3.932H73.7277V13.328H75.7277ZM96.3875 0.799998V-0.200002H95.3875V0.799998H96.3875ZM96.3875 26H95.3875V27H96.3875V26ZM99.7355 22.832H98.7355V23.832H99.7355V22.832ZM99.7355 3.968V2.968H98.7355V3.968H99.7355ZM106.215 -0.200002H96.3875V1.8H106.215V-0.200002ZM95.3875 0.799998V26H97.3875V0.799998H95.3875ZM96.3875 27H106.215V25H96.3875V27ZM106.215 27C113.782 27 119.168 20.8676 119.168 13.4H117.168C117.168 19.9004 112.545 25 106.215 25V27ZM119.168 13.4C119.168 5.93243 113.782 -0.200002 106.215 -0.200002V1.8C112.545 1.8 117.168 6.89957 117.168 13.4H119.168ZM106.215 21.832H99.7355V23.832H106.215V21.832ZM100.736 22.832V3.968H98.7355V22.832H100.736ZM99.7355 4.968H106.215V2.968H99.7355V4.968ZM106.215 4.968C110.76 4.968 113.964 8.53298 113.964 13.4H115.964C115.964 7.61102 112.039 2.968 106.215 2.968V4.968ZM113.964 13.4C113.964 18.267 110.76 21.832 106.215 21.832V23.832C112.039 23.832 115.964 19.189 115.964 13.4H113.964ZM140.909 26L139.969 26.3413L140.208 27H140.909V26ZM144.473 26V27H145.913L145.41 25.6506L144.473 26ZM135.077 0.799998L136.014 0.450636L135.772 -0.200002H135.077V0.799998ZM131.297 0.799998V-0.200002H130.603L130.36 0.450636L131.297 0.799998ZM121.901 26L120.964 25.6506L120.461 27H121.901V26ZM125.465 26V27H126.166L126.405 26.3413L125.465 26ZM127.517 20.348V19.348H126.816L126.577 20.0067L127.517 20.348ZM138.857 20.348L139.797 20.0067L139.558 19.348H138.857V20.348ZM128.669 17.216L127.729 16.8754L127.243 18.216H128.669V17.216ZM133.169 4.796L134.109 4.45294L133.166 1.87076L132.229 4.45535L133.169 4.796ZM137.705 17.216V18.216H139.135L138.645 16.8729L137.705 17.216ZM140.909 27H144.473V25H140.909V27ZM145.41 25.6506L136.014 0.450636L134.14 1.14936L143.536 26.3494L145.41 25.6506ZM135.077 -0.200002H131.297V1.8H135.077V-0.200002ZM130.36 0.450636L120.964 25.6506L122.838 26.3494L132.234 1.14936L130.36 0.450636ZM121.901 27H125.465V25H121.901V27ZM126.405 26.3413L128.457 20.6893L126.577 20.0067L124.525 25.6587L126.405 26.3413ZM127.517 21.348H138.857V19.348H127.517V21.348ZM137.917 20.6893L139.969 26.3413L141.849 25.6587L139.797 20.0067L137.917 20.6893ZM129.609 17.5566L134.109 5.13665L132.229 4.45535L127.729 16.8754L129.609 17.5566ZM132.23 5.13905L136.766 17.5591L138.645 16.8729L134.109 4.45294L132.23 5.13905ZM137.705 16.216H128.669V18.216H137.705V16.216Z" fill="white" mask="url(#path-1-outside-1_87_601)"/>
</svg>
