<svg width="89" height="16" viewBox="0 0 89 16" fill="none" xmlns="http://www.w3.org/2000/svg">
<mask id="path-1-outside-1_85_462" maskUnits="userSpaceOnUse" x="-2" y="-1" width="92" height="18" fill="black">
<rect fill="white" x="-2" y="-1" width="92" height="18"/>
<path d="M5.16 15H7.26L12.28 0.999999H10.26L6.22 12.68L2.16 0.999999H0.16L5.16 15ZM22.0019 15.26C25.0619 15.26 27.2419 13.34 27.2419 10.3V0.999999H25.4019V10.22C25.4019 12.16 24.2419 13.44 22.0019 13.44C19.7619 13.44 18.6019 12.16 18.6019 10.22V0.999999H16.7419V10.3C16.7419 13.34 18.9419 15.26 22.0019 15.26ZM34.9459 13.24V0.999999H33.0859V15H40.9859V13.24H34.9459ZM51.4745 15.26C54.0745 15.26 56.3545 13.9 57.5145 11.84L55.8945 10.92C55.0945 12.44 53.3945 13.44 51.4745 13.44C48.1945 13.44 45.9945 11.06 45.9945 8C45.9945 4.92 48.1945 2.54 51.4745 2.54C53.3945 2.54 55.0945 3.54 55.8945 5.08L57.5145 4.14C56.3345 2.08 54.0545 0.739999 51.4745 0.739999C47.1945 0.739999 44.1545 3.96 44.1545 8C44.1545 12.02 47.1945 15.26 51.4745 15.26ZM71.7044 15H73.6844L68.4644 0.999999H66.3644L61.1444 15H63.1244L64.2644 11.86H70.5644L71.7044 15ZM64.9044 10.12L67.4044 3.22L69.9244 10.12H64.9044ZM87.0359 0.999999V11.44L79.8359 0.999999H78.3359V15H80.1959V4.54L87.3959 15H88.8959V0.999999H87.0359Z"/>
</mask>
<path d="M5.16 15L4.21826 15.3363L4.45528 16H5.16V15ZM7.26 15V16H7.96377L8.20131 15.3375L7.26 15ZM12.28 0.999999L13.2213 1.33753L13.7009 -9.53674e-07H12.28V0.999999ZM10.26 0.999999V-9.53674e-07H9.54776L9.31494 0.673111L10.26 0.999999ZM6.22 12.68L5.27544 13.0083L6.22233 15.7324L7.16506 13.0069L6.22 12.68ZM2.16 0.999999L3.10456 0.671667L2.87109 -9.53674e-07H2.16V0.999999ZM0.16 0.999999V-9.53674e-07H-1.259L-0.781742 1.33634L0.16 0.999999ZM5.16 16H7.26V14H5.16V16ZM8.20131 15.3375L13.2213 1.33753L11.3387 0.66247L6.31869 14.6625L8.20131 15.3375ZM12.28 -9.53674e-07H10.26V2H12.28V-9.53674e-07ZM9.31494 0.673111L5.27494 12.3531L7.16506 13.0069L11.2051 1.32689L9.31494 0.673111ZM7.16456 12.3517L3.10456 0.671667L1.21544 1.32833L5.27544 13.0083L7.16456 12.3517ZM2.16 -9.53674e-07H0.16V2H2.16V-9.53674e-07ZM-0.781742 1.33634L4.21826 15.3363L6.10174 14.6637L1.10174 0.663662L-0.781742 1.33634ZM27.2419 0.999999H28.2419V-9.53674e-07H27.2419V0.999999ZM25.4019 0.999999V-9.53674e-07H24.4019V0.999999H25.4019ZM18.6019 0.999999H19.6019V-9.53674e-07H18.6019V0.999999ZM16.7419 0.999999V-9.53674e-07H15.7419V0.999999H16.7419ZM22.0019 16.26C23.74 16.26 25.3069 15.7125 26.4493 14.6533C27.5998 13.5865 28.2419 12.0714 28.2419 10.3H26.2419C26.2419 11.5685 25.794 12.5335 25.0895 13.1867C24.3768 13.8475 23.3238 14.26 22.0019 14.26V16.26ZM28.2419 10.3V0.999999H26.2419V10.3H28.2419ZM27.2419 -9.53674e-07H25.4019V2H27.2419V-9.53674e-07ZM24.4019 0.999999V10.22H26.4019V0.999999H24.4019ZM24.4019 10.22C24.4019 10.9913 24.1751 11.5145 23.8395 11.8457C23.5034 12.1774 22.933 12.44 22.0019 12.44V14.44C23.3108 14.44 24.4403 14.0626 25.2443 13.2693C26.0487 12.4755 26.4019 11.3887 26.4019 10.22H24.4019ZM22.0019 12.44C21.0708 12.44 20.5003 12.1774 20.1643 11.8457C19.8287 11.5145 19.6019 10.9913 19.6019 10.22H17.6019C17.6019 11.3887 17.9551 12.4755 18.7595 13.2693C19.5634 14.0626 20.693 14.44 22.0019 14.44V12.44ZM19.6019 10.22V0.999999H17.6019V10.22H19.6019ZM18.6019 -9.53674e-07H16.7419V2H18.6019V-9.53674e-07ZM15.7419 0.999999V10.3H17.7419V0.999999H15.7419ZM15.7419 10.3C15.7419 12.0743 16.391 13.5895 17.5464 14.6551C18.6932 15.7127 20.2641 16.26 22.0019 16.26V14.26C20.6797 14.26 19.6205 13.8473 18.9023 13.1849C18.1927 12.5305 17.7419 11.5657 17.7419 10.3H15.7419ZM34.9459 13.24H33.9459V14.24H34.9459V13.24ZM34.9459 0.999999H35.9459V-9.53674e-07H34.9459V0.999999ZM33.0859 0.999999V-9.53674e-07H32.0859V0.999999H33.0859ZM33.0859 15H32.0859V16H33.0859V15ZM40.9859 15V16H41.9859V15H40.9859ZM40.9859 13.24H41.9859V12.24H40.9859V13.24ZM35.9459 13.24V0.999999H33.9459V13.24H35.9459ZM34.9459 -9.53674e-07H33.0859V2H34.9459V-9.53674e-07ZM32.0859 0.999999V15H34.0859V0.999999H32.0859ZM33.0859 16H40.9859V14H33.0859V16ZM41.9859 15V13.24H39.9859V15H41.9859ZM40.9859 12.24H34.9459V14.24H40.9859V12.24ZM57.5145 11.84L58.3859 12.3307L58.8748 11.4625L58.0084 10.9704L57.5145 11.84ZM55.8945 10.92L56.3884 10.0504L55.4905 9.54055L55.0096 10.4543L55.8945 10.92ZM55.8945 5.08L55.0071 5.54099L55.4901 6.4708L56.3964 5.94494L55.8945 5.08ZM57.5145 4.14L58.0164 5.00494L58.8765 4.50585L58.3823 3.64295L57.5145 4.14ZM51.4745 16.26C54.424 16.26 57.0431 14.7153 58.3859 12.3307L56.6432 11.3493C55.666 13.0847 53.7251 14.26 51.4745 14.26V16.26ZM58.0084 10.9704L56.3884 10.0504L55.4007 11.7896L57.0207 12.7096L58.0084 10.9704ZM55.0096 10.4543C54.3976 11.617 53.0569 12.44 51.4745 12.44V14.44C53.7322 14.44 55.7914 13.263 56.7794 11.3857L55.0096 10.4543ZM51.4745 12.44C48.7638 12.44 46.9945 10.5248 46.9945 8H44.9945C44.9945 11.5952 47.6253 14.44 51.4745 14.44V12.44ZM46.9945 8C46.9945 5.45275 48.7662 3.54 51.4745 3.54V1.54C47.6229 1.54 44.9945 4.38725 44.9945 8H46.9945ZM51.4745 3.54C53.0553 3.54 54.3943 4.36132 55.0071 5.54099L56.7819 4.61901C55.7948 2.71868 53.7337 1.54 51.4745 1.54V3.54ZM56.3964 5.94494L58.0164 5.00494L57.0127 3.27506L55.3927 4.21506L56.3964 5.94494ZM58.3823 3.64295C57.0184 1.26199 54.4015 -0.260001 51.4745 -0.260001V1.74C53.7076 1.74 55.6507 2.89801 56.6468 4.63704L58.3823 3.64295ZM51.4745 -0.260001C46.6314 -0.260001 43.1545 3.4186 43.1545 8H45.1545C45.1545 4.5014 47.7576 1.74 51.4745 1.74V-0.260001ZM43.1545 8C43.1545 12.5596 46.6296 16.26 51.4745 16.26V14.26C47.7594 14.26 45.1545 11.4804 45.1545 8H43.1545ZM71.7044 15L70.7644 15.3413L71.0036 16H71.7044V15ZM73.6844 15V16H75.1245L74.6214 14.6506L73.6844 15ZM68.4644 0.999999L69.4014 0.650637L69.1588 -9.53674e-07H68.4644V0.999999ZM66.3644 0.999999V-9.53674e-07H65.67L65.4274 0.650637L66.3644 0.999999ZM61.1444 15L60.2074 14.6506L59.7043 16H61.1444V15ZM63.1244 15V16H63.8252L64.0643 15.3413L63.1244 15ZM64.2644 11.86V10.86H63.5636L63.3244 11.5187L64.2644 11.86ZM70.5644 11.86L71.5043 11.5187L71.2652 10.86H70.5644V11.86ZM64.9044 10.12L63.9642 9.77935L63.4784 11.12H64.9044V10.12ZM67.4044 3.22L68.3437 2.87694L67.4006 0.294758L66.4642 2.87935L67.4044 3.22ZM69.9244 10.12V11.12H71.3542L70.8637 9.77695L69.9244 10.12ZM71.7044 16H73.6844V14H71.7044V16ZM74.6214 14.6506L69.4014 0.650637L67.5274 1.34936L72.7474 15.3494L74.6214 14.6506ZM68.4644 -9.53674e-07H66.3644V2H68.4644V-9.53674e-07ZM65.4274 0.650637L60.2074 14.6506L62.0814 15.3494L67.3014 1.34936L65.4274 0.650637ZM61.1444 16H63.1244V14H61.1444V16ZM64.0643 15.3413L65.2043 12.2013L63.3244 11.5187L62.1844 14.6587L64.0643 15.3413ZM64.2644 12.86H70.5644V10.86H64.2644V12.86ZM69.6244 12.2013L70.7644 15.3413L72.6443 14.6587L71.5043 11.5187L69.6244 12.2013ZM65.8446 10.4606L68.3446 3.56065L66.4642 2.87935L63.9642 9.77935L65.8446 10.4606ZM66.4651 3.56305L68.9851 10.4631L70.8637 9.77695L68.3437 2.87694L66.4651 3.56305ZM69.9244 9.12H64.9044V11.12H69.9244V9.12ZM87.0359 0.999999V-9.53674e-07H86.0359V0.999999H87.0359ZM87.0359 11.44L86.2127 12.0077L88.0359 14.6514V11.44H87.0359ZM79.8359 0.999999L80.6591 0.432266L80.361 -9.53674e-07H79.8359V0.999999ZM78.3359 0.999999V-9.53674e-07H77.3359V0.999999H78.3359ZM78.3359 15H77.3359V16H78.3359V15ZM80.1959 15V16H81.1959V15H80.1959ZM80.1959 4.54L81.0197 3.973L79.1959 1.32354V4.54H80.1959ZM87.3959 15L86.5722 15.567L86.8703 16H87.3959V15ZM88.8959 15V16H89.8959V15H88.8959ZM88.8959 0.999999H89.8959V-9.53674e-07H88.8959V0.999999ZM86.0359 0.999999V11.44H88.0359V0.999999H86.0359ZM87.8592 10.8723L80.6591 0.432266L79.0127 1.56773L86.2127 12.0077L87.8592 10.8723ZM79.8359 -9.53674e-07H78.3359V2H79.8359V-9.53674e-07ZM77.3359 0.999999V15H79.3359V0.999999H77.3359ZM78.3359 16H80.1959V14H78.3359V16ZM81.1959 15V4.54H79.1959V15H81.1959ZM79.3722 5.107L86.5722 15.567L88.2197 14.433L81.0197 3.973L79.3722 5.107ZM87.3959 16H88.8959V14H87.3959V16ZM89.8959 15V0.999999H87.8959V15H89.8959ZM88.8959 -9.53674e-07H87.0359V2H88.8959V-9.53674e-07Z" fill="#282E45" mask="url(#path-1-outside-1_85_462)"/>
</svg>
