<svg width="20" height="20" viewBox="0 0 20 20" fill="none" xmlns="http://www.w3.org/2000/svg">
<g id="Send">
<g id="Iconly/Bold/Send">
<g id="Send_2">
<path id="Vector" d="M17.8628 2.15173C17.4459 1.72391 16.829 1.56453 16.2538 1.7323L2.83996 5.63302C2.23304 5.80163 1.80287 6.28565 1.68698 6.90054C1.5686 7.52633 1.98211 8.32074 2.52233 8.65293L6.71654 11.2308C7.14672 11.495 7.70195 11.4287 8.05793 11.0697L12.8607 6.237C13.1025 5.98534 13.5027 5.98534 13.7444 6.237C13.9862 6.48027 13.9862 6.87454 13.7444 7.1262L8.93328 11.9597C8.57647 12.3179 8.50978 12.8758 8.77238 13.3086L11.3351 17.5449C11.6352 18.0482 12.1521 18.3334 12.719 18.3334C12.7857 18.3334 12.8607 18.3334 12.9274 18.325C13.5777 18.2411 14.0946 17.7965 14.2863 17.1674L18.2629 3.77074C18.438 3.20031 18.2796 2.57955 17.8628 2.15173Z" fill="url(#paint0_linear_660_419)"/>
</g>
</g>
</g>
<defs>
<linearGradient id="paint0_linear_660_419" x1="18.3333" y1="10.0001" x2="1.04172" y2="11.6064" gradientUnits="userSpaceOnUse">
<stop stop-color="#CE9FFC"/>
<stop offset="1" stop-color="#7367F0" stop-opacity="0.8"/>
</linearGradient>
</defs>
</svg>
